<svg xmlns="http://www.w3.org/2000/svg" width="128" height="128" viewBox="0 0 128 128">
  <rect width="128" height="128" fill="#eef7fb"/>
  <rect x="0" y="0" width="32" height="32" fill="#f8fcff"/>
  <rect x="32" y="0" width="32" height="32" fill="#dcecf5"/>
  <rect x="64" y="0" width="32" height="32" fill="#f8fcff"/>
  <rect x="96" y="0" width="32" height="32" fill="#dcecf5"/>
  <rect x="0" y="32" width="32" height="32" fill="#dcecf5"/>
  <rect x="32" y="32" width="32" height="32" fill="#f8fcff"/>
  <rect x="64" y="32" width="32" height="32" fill="#dcecf5"/>
  <rect x="96" y="32" width="32" height="32" fill="#f8fcff"/>
  <rect x="0" y="64" width="32" height="32" fill="#f8fcff"/>
  <rect x="32" y="64" width="32" height="32" fill="#dcecf5"/>
  <rect x="64" y="64" width="32" height="32" fill="#f8fcff"/>
  <rect x="96" y="64" width="32" height="32" fill="#dcecf5"/>
  <rect x="0" y="96" width="32" height="32" fill="#dcecf5"/>
  <rect x="32" y="96" width="32" height="32" fill="#f8fcff"/>
  <rect x="64" y="96" width="32" height="32" fill="#dcecf5"/>
  <rect x="96" y="96" width="32" height="32" fill="#f8fcff"/>
  <path d="M32 0v128M64 0v128M96 0v128M0 32h128M0 64h128M0 96h128" stroke="#c5d9e3" stroke-width="2"/>
</svg>
