<svg xmlns="http://www.w3.org/2000/svg" width="128" height="160" viewBox="0 0 128 160">
  <ellipse cx="64" cy="146" rx="24" ry="10" fill="#233b31" opacity="0.18"/>
  <circle cx="64" cy="32" r="18" fill="#f0cfbe"/>
  <path d="M45 28c2-12 14-21 30-17 7 2 13 8 15 17v10H45z" fill="#5d4128"/>
  <path d="M36 54c0-6 5-11 11-11h34c6 0 11 5 11 11v54c0 7-6 13-13 13H49c-7 0-13-6-13-13z" fill="#ffffff" stroke="#cfd7df" stroke-width="4"/>
  <rect x="60" y="52" width="8" height="58" rx="4" fill="#e4edf4"/>
  <rect x="48" y="64" width="32" height="8" rx="4" fill="#dc2f2f"/>
  <rect x="60" y="52" width="8" height="32" rx="4" fill="#dc2f2f"/>
  <rect x="28" y="60" width="12" height="34" rx="6" fill="#ffffff" stroke="#cfd7df" stroke-width="4"/>
  <rect x="88" y="60" width="12" height="34" rx="6" fill="#ffffff" stroke="#cfd7df" stroke-width="4"/>
  <rect x="50" y="122" width="10" height="24" rx="4" fill="#475f6f"/>
  <rect x="68" y="122" width="10" height="24" rx="4" fill="#475f6f"/>
</svg>
